<?xml version="1.0" encoding="UTF-8"?>
<svg width="595px" height="500px" viewBox="0 0 595 500" version="1.1" xmlns="http://www.w3.org/2000/svg" xmlns:xlink="http://www.w3.org/1999/xlink">
    <!-- Generator: Sketch 43.2 (39069) - http://www.bohemiancoding.com/sketch -->
    <title>Nerd2code</title>
    <desc>Created with Sketch.</desc>
    <defs>
        <radialGradient cx="50%" cy="39.9021447%" fx="50%" fy="39.9021447%" r="78.2520736%" gradientTransform="translate(0.500000,0.399021),scale(0.926830,1.000000),translate(-0.500000,-0.399021)" id="radialGradient-1">
            <stop stop-color="#FFFFFF" offset="0%"></stop>
            <stop stop-color="#FF8A8A" offset="100%"></stop>
        </radialGradient>
        <radialGradient cx="50%" cy="47.7505445%" fx="50%" fy="47.7505445%" r="54.1970167%" gradientTransform="translate(0.500000,0.477505),scale(1.000000,0.695621),translate(-0.500000,-0.477505)" id="radialGradient-2">
            <stop stop-color="#FFFFFF" offset="0%"></stop>
            <stop stop-color="#FF9B9B" offset="100%"></stop>
        </radialGradient>
        <filter x="-19.5%" y="-152.6%" width="139.0%" height="426.3%" filterUnits="objectBoundingBox" id="filter-3">
            <feOffset dx="0" dy="2" in="SourceAlpha" result="shadowOffsetOuter1"></feOffset>
            <feGaussianBlur stdDeviation="10" in="shadowOffsetOuter1" result="shadowBlurOuter1"></feGaussianBlur>
            <feColorMatrix values="0 0 0 0 0   0 0 0 0 0   0 0 0 0 0  0 0 0 0.5 0" type="matrix" in="shadowBlurOuter1" result="shadowMatrixOuter1"></feColorMatrix>
            <feMerge>
                <feMergeNode in="shadowMatrixOuter1"></feMergeNode>
                <feMergeNode in="SourceGraphic"></feMergeNode>
            </feMerge>
        </filter>
        <filter x="-77.5%" y="-131.8%" width="255.0%" height="381.8%" filterUnits="objectBoundingBox" id="filter-4">
            <feOffset dx="0" dy="2" in="SourceAlpha" result="shadowOffsetOuter1"></feOffset>
            <feGaussianBlur stdDeviation="10" in="shadowOffsetOuter1" result="shadowBlurOuter1"></feGaussianBlur>
            <feColorMatrix values="0 0 0 0 0   0 0 0 0 0   0 0 0 0 0  0 0 0 0.5 0" type="matrix" in="shadowBlurOuter1" result="shadowMatrixOuter1"></feColorMatrix>
            <feMerge>
                <feMergeNode in="shadowMatrixOuter1"></feMergeNode>
                <feMergeNode in="SourceGraphic"></feMergeNode>
            </feMerge>
        </filter>
        <filter x="-12.1%" y="-8.4%" width="124.2%" height="117.9%" filterUnits="objectBoundingBox" id="filter-5">
            <feOffset dx="0" dy="2" in="SourceAlpha" result="shadowOffsetOuter1"></feOffset>
            <feGaussianBlur stdDeviation="10" in="shadowOffsetOuter1" result="shadowBlurOuter1"></feGaussianBlur>
            <feColorMatrix values="0 0 0 0 0   0 0 0 0 0   0 0 0 0 0  0 0 0 0.5 0" type="matrix" in="shadowBlurOuter1" result="shadowMatrixOuter1"></feColorMatrix>
            <feMerge>
                <feMergeNode in="shadowMatrixOuter1"></feMergeNode>
                <feMergeNode in="SourceGraphic"></feMergeNode>
            </feMerge>
        </filter>
    </defs>
    <g id="Page-1" stroke="none" stroke-width="1" fill="none" fill-rule="evenodd">
        <g id="Nerd2code">
            <g id="Group" opacity="0.920009328" transform="translate(0.000000, -219.000000)">
                <rect id="Rectangle-path" fill="url(#radialGradient-1)" x="0" y="196" width="599.89418" height="556"></rect>
                <polygon id="Shape" fill="url(#radialGradient-2)" style="mix-blend-mode: color-burn;" opacity="0.7" points="596.931217 414.121226 337.460317 425.903285 596.931217 349.319899 596.931217 283.92947 336.084656 406.462887 596.931217 224.037334 596.931217 150.399463 326.560847 386.826122 596.931217 44.5572963 596.931217 0.570941252 551.746032 0.570941252 320.846561 376.615003 492.169312 0.570941252 436.825397 0.570941252 316.190476 353.050885 387.407407 0.570941252 346.560847 0.570941252 302.010582 351.872679 322.222222 0.570941252 279.78836 0.570941252 289.62963 335.770531 249.312169 0.570941252 207.195767 0.570941252 275.026455 343.42887 159.365079 0.570941252 104.761905 0.570941252 275.343915 366.403885 45.8201058 0.570941252 0 0.570941252 0 42.7899874 268.888889 382.309666 0 147.846684 0 220.699084 257.566138 395.269931 0 280.198484 0 345.196178 257.883598 421.190462 0 409.408402 0 463.016772 248.042328 440.434492 0 507.788598 0 572.589925 253.227513 458.303949 0 632.089325 0 705.138093 268.888889 470.086008 0 810.587524 0 858.6976 42.2222222 858.6976 263.809524 508.770436 102.222222 858.6976 157.671958 858.6976 275.873016 514.857834 207.513228 858.6976 248.465608 858.6976 288.148148 516.625143 273.121693 858.6976 315.661376 858.6976 305.820106 521.337966 346.455026 858.6976 387.089947 858.6976 315.132275 513.286892 436.402116 858.6976 491.640212 858.6976 322.962963 493.846494 551.216931 858.6976 596.931217 858.6976 596.931217 816.085819 326.560847 474.798832 596.931217 710.44002 596.931217 637.587619 345.608466 471.264214 596.931217 577.891851 596.931217 513.090525 350.899471 453.394757 596.931217 468.711434"></polygon>
            </g>
            <g id="Group" filter="url(#filter-3)" transform="translate(71.000000, 269.000000)">
                <rect id="Rectangle-1" fill="#4A4A4A" x="0" y="5.84615385" width="159" height="13.1538462"></rect>
                <rect id="Rectangle-2" fill="#DDDDDD" x="2.89090909" y="0" width="6.50454545" height="5.84615385"></rect>
                <rect id="Rectangle-2-Copy" fill="#DDDDDD" x="12.2863636" y="0" width="6.50454545" height="5.84615385"></rect>
                <rect id="Rectangle-2-Copy-2" fill="#DDDDDD" x="21.6818182" y="0" width="6.50454545" height="5.84615385"></rect>
                <rect id="Rectangle-2-Copy-3" fill="#DDDDDD" x="31.0772727" y="0" width="6.50454545" height="5.84615385"></rect>
                <rect id="Rectangle-2-Copy-4" fill="#DDDDDD" x="40.4727273" y="0" width="6.50454545" height="5.84615385"></rect>
                <rect id="Rectangle-2-Copy-5" fill="#DDDDDD" x="49.8681818" y="0" width="6.50454545" height="5.84615385"></rect>
                <rect id="Rectangle-2-Copy-6" fill="#DDDDDD" x="59.2636364" y="0" width="6.50454545" height="5.84615385"></rect>
                <rect id="Rectangle-2-Copy-7" fill="#DDDDDD" x="68.6590909" y="0" width="6.50454545" height="5.84615385"></rect>
                <rect id="Rectangle-2-Copy-8" fill="#DDDDDD" x="78.0545455" y="0" width="6.50454545" height="5.84615385"></rect>
                <rect id="Rectangle-2-Copy-9" fill="#DDDDDD" x="87.45" y="0" width="6.50454545" height="5.84615385"></rect>
                <rect id="Rectangle-2-Copy-10" fill="#DDDDDD" x="96.8454545" y="0" width="6.50454545" height="5.84615385"></rect>
                <rect id="Rectangle-2-Copy-11" fill="#DDDDDD" x="106.240909" y="0" width="6.50454545" height="5.84615385"></rect>
                <rect id="Rectangle-2-Copy-12" fill="#DDDDDD" x="114.913636" y="0" width="6.50454545" height="5.84615385"></rect>
                <rect id="Rectangle-2-Copy-13" fill="#DDDDDD" x="123.586364" y="0" width="6.50454545" height="5.84615385"></rect>
                <rect id="Rectangle-2-Copy-14" fill="#DDDDDD" x="132.259091" y="0" width="6.50454545" height="5.84615385"></rect>
                <rect id="Rectangle-2-Copy-15" fill="#DDDDDD" x="140.931818" y="0" width="6.50454545" height="5.84615385"></rect>
                <rect id="Rectangle-2-Copy-16" fill="#DDDDDD" x="149.604545" y="0" width="6.50454545" height="5.84615385"></rect>
            </g>
            <g id="Oval-1-+-Oval-1-Copy-+-Oval-1-Copy-2" filter="url(#filter-4)" transform="translate(390.000000, 264.000000)">
                <path d="M5.68434189e-14,21.2604167 L39.1111111,21.2604167 L39.1111111,11.1111111 C39.1111111,4.97461389 30.3557907,0 19.5555556,0 C8.75532045,0 5.68434189e-14,4.97461389 5.68434189e-14,11.1111111 L5.68434189e-14,21.2604167 Z" id="Oval-1" fill="#4A4A4A"></path>
                <path d="M18.6666667,10.8802083 L18.6666667,1.70081017 C18.6666667,1.70081017 12.3186493,1.47323768 6.89885659,3.90682877 C4.56394778,4.9552477 5.66189238,10.8802083 5.66189238,10.8802083 L18.6666667,10.8802083 Z" id="Oval-1-Copy" fill="#9B9B9B"></path>
                <path d="M33.7777778,10.8802083 L33.7777778,1.70081017 C33.7777778,1.70081017 27.4297605,1.47323768 22.0099677,3.90682877 C19.6750589,4.9552477 20.7730035,10.8802083 20.7730035,10.8802083 L33.7777778,10.8802083 Z" id="Oval-1-Copy-2" fill="#9B9B9B" transform="translate(27.146440, 6.287685) scale(-1, 1) translate(-27.146440, -6.287685) "></path>
            </g>
            <path d="M68.256,445.08 C67.8293312,445.08 67.616,445.293331 67.616,445.72 L67.616,461.72 C67.616,462.061335 67.4880013,462.359999 67.232,462.616 C66.9759987,462.872001 66.677335,463 66.336,463 L62.816,463 C62.474665,463 62.1760013,462.872001 61.92,462.616 C61.6639987,462.359999 61.536,462.061335 61.536,461.72 L61.536,419.48 C61.536,419.138665 61.6639987,418.840001 61.92,418.584 C62.1760013,418.327999 62.474665,418.2 62.816,418.2 L74.336,418.2 C76.1706758,418.2 77.9093251,418.551996 79.552,419.256 C81.1946749,419.960004 82.6239939,420.919994 83.84,422.136 C85.0560061,423.352006 86.0159965,424.781325 86.72,426.424 C87.4240035,428.066675 87.776,429.805324 87.776,431.64 C87.776,434.072012 87.1573395,436.301323 85.92,438.328 C84.6826605,440.354677 83.0826765,441.943994 81.12,443.096 C80.5226637,443.437335 80.1173344,443.778665 79.904,444.12 C79.6906656,444.461335 79.7333318,444.930664 80.032,445.528 L87.584,461.08 C87.7973344,461.549336 87.808001,461.986665 87.616,462.392 C87.423999,462.797335 87.0080032,463 86.368,463 L82.784,463 C82.2719974,463 81.8880013,462.882668 81.632,462.648 C81.3759987,462.413332 81.1413344,462.104002 80.928,461.72 L73.376,445.848 C73.2906662,445.634666 73.152001,445.453334 72.96,445.304 C72.767999,445.154666 72.501335,445.08 72.16,445.08 L68.256,445.08 Z M68.256,424.28 C67.8293312,424.28 67.616,424.493331 67.616,424.92 L67.616,438.36 C67.616,438.786669 67.8293312,439 68.256,439 L74.336,439 C75.3600051,439 76.309329,438.808002 77.184,438.424 C78.058671,438.039998 78.8373299,437.50667 79.52,436.824 C80.2026701,436.14133 80.7359981,435.362671 81.12,434.488 C81.5040019,433.613329 81.696,432.664005 81.696,431.64 C81.696,430.615995 81.5040019,429.666671 81.12,428.792 C80.7359981,427.917329 80.2026701,427.13867 79.52,426.456 C78.8373299,425.77333 78.058671,425.240002 77.184,424.856 C76.309329,424.471998 75.3600051,424.28 74.336,424.28 L68.256,424.28 Z M100.896,456.28 C100.896,456.706669 101.109331,456.92 101.536,456.92 L116.896,456.92 C117.237335,456.92 117.535999,457.047999 117.792,457.304 C118.048001,457.560001 118.176,457.858665 118.176,458.2 L118.176,461.72 C118.176,462.061335 118.048001,462.359999 117.792,462.616 C117.535999,462.872001 117.237335,463 116.896,463 L96.096,463 C95.754665,463 95.4560013,462.872001 95.2,462.616 C94.9439987,462.359999 94.816,462.061335 94.816,461.72 L94.816,419.48 C94.816,419.138665 94.9439987,418.840001 95.2,418.584 C95.4560013,418.327999 95.754665,418.2 96.096,418.2 L116.768,418.2 C117.109335,418.2 117.407999,418.327999 117.664,418.584 C117.920001,418.840001 118.048,419.138665 118.048,419.48 L118.048,423 C118.048,423.341335 117.920001,423.639999 117.664,423.896 C117.407999,424.152001 117.109335,424.28 116.768,424.28 L101.536,424.28 C101.109331,424.28 100.896,424.493331 100.896,424.92 L100.896,436.44 C100.896,436.866669 101.109331,437.08 101.536,437.08 L116.064,437.08 C116.405335,437.08 116.703999,437.207999 116.96,437.464 C117.216001,437.720001 117.344,438.018665 117.344,438.36 L117.344,441.88 C117.344,442.221335 117.216001,442.519999 116.96,442.776 C116.703999,443.032001 116.405335,443.16 116.064,443.16 L101.536,443.16 C101.109331,443.16 100.896,443.373331 100.896,443.8 L100.896,456.28 Z M140.32,445.4 C140.789336,445.4 140.960001,445.165336 140.832,444.696 L136.672,426.84 C136.586666,426.583999 136.501334,426.456 136.416,426.456 L136.288,426.456 C136.159999,426.456 136.074667,426.583999 136.032,426.84 L131.872,444.696 C131.743999,445.165336 131.914664,445.4 132.384,445.4 L140.32,445.4 Z M142.88,452.248 C142.751999,451.650664 142.34667,451.352 141.664,451.352 L131.04,451.352 C130.442664,451.352 130.037334,451.650664 129.824,452.248 L127.008,462.04 C126.794666,462.680003 126.389336,463 125.792,463 L122.272,463 C121.759997,463 121.397334,462.861335 121.184,462.584 C120.970666,462.306665 120.906666,462.018668 120.992,461.72 L132.896,419.16 C133.024001,418.519997 133.42933,418.2 134.112,418.2 L138.592,418.2 C139.27467,418.2 139.679999,418.519997 139.808,419.16 L151.712,461.72 C151.797334,462.018668 151.733334,462.306665 151.52,462.584 C151.306666,462.861335 150.944003,463 150.432,463 L146.912,463 C146.314664,463 145.909334,462.680003 145.696,462.04 L142.88,452.248 Z M162.848,424.28 C162.421331,424.28 162.208,424.493331 162.208,424.92 L162.208,456.28 C162.208,456.706669 162.421331,456.92 162.848,456.92 L169.568,456.92 C170.549338,456.92 171.466662,456.717335 172.32,456.312 C173.173338,455.906665 173.919997,455.36267 174.56,454.68 C175.200003,453.99733 175.722665,453.218671 176.128,452.344 C176.533335,451.469329 176.799999,450.541338 176.928,449.56 C177.098668,448.279994 177.216,446.872008 177.28,445.336 C177.344,443.799992 177.376,442.232008 177.376,440.632 C177.376,439.031992 177.344,437.453341 177.28,435.896 C177.216,434.338659 177.098668,432.920006 176.928,431.64 C176.799999,430.701329 176.533335,429.784004 176.128,428.888 C175.722665,427.991996 175.200003,427.20267 174.56,426.52 C173.919997,425.83733 173.173338,425.293335 172.32,424.888 C171.466662,424.482665 170.549338,424.28 169.568,424.28 L162.848,424.28 Z M169.568,418.2 C171.402676,418.2 173.098659,418.551996 174.656,419.256 C176.213341,419.960004 177.567994,420.919994 178.72,422.136 C179.872006,423.352006 180.82133,424.781325 181.568,426.424 C182.31467,428.066675 182.794666,429.805324 183.008,431.64 C183.178668,432.920006 183.296,434.338659 183.36,435.896 C183.424,437.453341 183.456,439.031992 183.456,440.632 C183.456,442.232008 183.413334,443.799992 183.328,445.336 C183.242666,446.872008 183.136001,448.279994 183.008,449.56 C182.794666,451.394676 182.325337,453.133325 181.6,454.776 C180.874663,456.418675 179.925339,457.847994 178.752,459.064 C177.578661,460.280006 176.213341,461.239996 174.656,461.944 C173.098659,462.648004 171.402676,463 169.568,463 L157.408,463 C157.066665,463 156.768001,462.872001 156.512,462.616 C156.255999,462.359999 156.128,462.061335 156.128,461.72 L156.128,419.48 C156.128,419.138665 156.255999,418.840001 156.512,418.584 C156.768001,418.327999 157.066665,418.2 157.408,418.2 L169.568,418.2 Z M198.176,439.064 C198.346668,439.490669 198.517332,439.490669 198.688,439.064 L205.792,419.16 C206.005334,418.519997 206.410664,418.2 207.008,418.2 L211.232,418.2 C211.658669,418.2 211.989332,418.381332 212.224,418.744 C212.458668,419.106668 212.469334,419.522664 212.256,419.992 L201.504,447.576 L201.504,461.72 C201.504,462.061335 201.376001,462.359999 201.12,462.616 C200.863999,462.872001 200.565335,463 200.224,463 L196.64,463 C196.298665,463 196.000001,462.872001 195.744,462.616 C195.487999,462.359999 195.36,462.061335 195.36,461.72 L195.36,447.64 L184.48,419.992 C184.266666,419.522664 184.277332,419.106668 184.512,418.744 C184.746668,418.381332 185.077331,418.2 185.504,418.2 L189.728,418.2 C190.325336,418.2 190.730666,418.519997 190.944,419.16 L198.176,439.064 Z M219.936,461.72 C219.936,462.061335 219.808001,462.359999 219.552,462.616 C219.295999,462.872001 218.997335,463 218.656,463 L212.896,463 C212.554665,463 212.256001,462.872001 212,462.616 C211.743999,462.359999 211.616,462.061335 211.616,461.72 L211.616,455.96 C211.616,455.618665 211.743999,455.320001 212,455.064 C212.256001,454.807999 212.554665,454.68 212.896,454.68 L218.656,454.68 C218.997335,454.68 219.295999,454.807999 219.552,455.064 C219.808001,455.320001 219.936,455.618665 219.936,455.96 L219.936,461.72 Z M238.048,461.72 C238.048,462.061335 237.920001,462.359999 237.664,462.616 C237.407999,462.872001 237.109335,463 236.768,463 L231.008,463 C230.666665,463 230.368001,462.872001 230.112,462.616 C229.855999,462.359999 229.728,462.061335 229.728,461.72 L229.728,455.96 C229.728,455.618665 229.855999,455.320001 230.112,455.064 C230.368001,454.807999 230.666665,454.68 231.008,454.68 L236.768,454.68 C237.109335,454.68 237.407999,454.807999 237.664,455.064 C237.920001,455.320001 238.048,455.618665 238.048,455.96 L238.048,461.72 Z M256.16,461.72 C256.16,462.061335 256.032001,462.359999 255.776,462.616 C255.519999,462.872001 255.221335,463 254.88,463 L249.12,463 C248.778665,463 248.480001,462.872001 248.224,462.616 C247.967999,462.359999 247.84,462.061335 247.84,461.72 L247.84,455.96 C247.84,455.618665 247.967999,455.320001 248.224,455.064 C248.480001,454.807999 248.778665,454.68 249.12,454.68 L254.88,454.68 C255.221335,454.68 255.519999,454.807999 255.776,455.064 C256.032001,455.320001 256.16,455.618665 256.16,455.96 L256.16,461.72 Z M285.728,450.2 C285.728,448.706659 285.472003,447.512004 284.96,446.616 C284.447997,445.719996 283.722671,444.984003 282.784,444.408 C281.845329,443.831997 280.714673,443.373335 279.392,443.032 C278.069327,442.690665 276.597341,442.328002 274.976,441.944 C273.397325,441.602665 271.95734,441.101337 270.656,440.44 C269.35466,439.778663 268.234671,438.946672 267.296,437.944 C266.357329,436.941328 265.621336,435.75734 265.088,434.392 C264.554664,433.02666 264.288,431.469342 264.288,429.72 C264.288,427.79999 264.66133,426.093341 265.408,424.6 C266.15467,423.106659 267.14666,421.848005 268.384,420.824 C269.62134,419.799995 271.029325,419.021336 272.608,418.488 C274.186675,417.954664 275.807992,417.688 277.472,417.688 C279.349343,417.688 281.087992,418.007997 282.688,418.648 C284.288008,419.288003 285.674661,420.151995 286.848,421.24 C288.021339,422.328005 288.938663,423.597326 289.6,425.048 C290.261337,426.498674 290.592,428.055992 290.592,429.72 L290.592,430.552 C290.592,430.893335 290.464001,431.191999 290.208,431.448 C289.951999,431.704001 289.653335,431.832 289.312,431.832 L285.792,431.832 C285.450665,431.832 285.152001,431.704001 284.896,431.448 C284.639999,431.191999 284.512,430.893335 284.512,430.552 L284.512,429.72 C284.512,428.653328 284.298669,427.74667 283.872,427 C283.445331,426.25333 282.89067,425.634669 282.208,425.144 C281.52533,424.653331 280.768004,424.301334 279.936,424.088 C279.103996,423.874666 278.282671,423.768 277.472,423.768 C275.381323,423.768 273.68534,424.301328 272.384,425.368 C271.08266,426.434672 270.432,427.885324 270.432,429.72 C270.432,431.128007 270.74133,432.247996 271.36,433.08 C271.97867,433.912004 272.757329,434.573331 273.696,435.064 C274.634671,435.554669 275.669328,435.927999 276.8,436.184 C277.930672,436.440001 279.007995,436.695999 280.032,436.952 C283.658685,437.848004 286.538656,439.362656 288.672,441.496 C290.805344,443.629344 291.872,446.530648 291.872,450.2 C291.872,452.24801 291.466671,454.093325 290.656,455.736 C289.845329,457.378675 288.778673,458.775994 287.456,459.928 C286.133327,461.080006 284.597342,461.96533 282.848,462.584 C281.098658,463.20267 279.306676,463.512 277.472,463.512 C275.42399,463.512 273.514676,463.160004 271.744,462.456 C269.973324,461.751996 268.448006,460.792006 267.168,459.576 C265.887994,458.359994 264.885337,456.952008 264.16,455.352 C263.434663,453.751992 263.072,452.034676 263.072,450.2 L263.072,449.176 C263.072,448.834665 263.199999,448.536001 263.456,448.28 C263.712001,448.023999 264.010665,447.896 264.352,447.896 L267.936,447.896 C268.277335,447.896 268.575999,448.023999 268.832,448.28 C269.088001,448.536001 269.216,448.834665 269.216,449.176 L269.216,450.2 C269.216,451.224005 269.418665,452.183996 269.824,453.08 C270.229335,453.976004 270.80533,454.743997 271.552,455.384 C272.29867,456.024003 273.173328,456.525332 274.176,456.888 C275.178672,457.250668 276.277327,457.432 277.472,457.432 C278.666673,457.432 279.765328,457.250668 280.768,456.888 C281.770672,456.525332 282.64533,456.013337 283.392,455.352 C284.13867,454.690663 284.714665,453.922671 285.12,453.048 C285.525335,452.173329 285.728,451.224005 285.728,450.2 Z M304.032,456.28 C304.032,456.706669 304.245331,456.92 304.672,456.92 L320.032,456.92 C320.373335,456.92 320.671999,457.047999 320.928,457.304 C321.184001,457.560001 321.312,457.858665 321.312,458.2 L321.312,461.72 C321.312,462.061335 321.184001,462.359999 320.928,462.616 C320.671999,462.872001 320.373335,463 320.032,463 L299.232,463 C298.890665,463 298.592001,462.872001 298.336,462.616 C298.079999,462.359999 297.952,462.061335 297.952,461.72 L297.952,419.48 C297.952,419.138665 298.079999,418.840001 298.336,418.584 C298.592001,418.327999 298.890665,418.2 299.232,418.2 L319.904,418.2 C320.245335,418.2 320.543999,418.327999 320.8,418.584 C321.056001,418.840001 321.184,419.138665 321.184,419.48 L321.184,423 C321.184,423.341335 321.056001,423.639999 320.8,423.896 C320.543999,424.152001 320.245335,424.28 319.904,424.28 L304.672,424.28 C304.245331,424.28 304.032,424.493331 304.032,424.92 L304.032,436.44 C304.032,436.866669 304.245331,437.08 304.672,437.08 L319.2,437.08 C319.541335,437.08 319.839999,437.207999 320.096,437.464 C320.352001,437.720001 320.48,438.018665 320.48,438.36 L320.48,441.88 C320.48,442.221335 320.352001,442.519999 320.096,442.776 C319.839999,443.032001 319.541335,443.16 319.2,443.16 L304.672,443.16 C304.245331,443.16 304.032,443.373331 304.032,443.8 L304.032,456.28 Z M341.152,424.28 C340.725331,424.28 340.512,424.493331 340.512,424.92 L340.512,461.72 C340.512,462.061335 340.384001,462.359999 340.128,462.616 C339.871999,462.872001 339.573335,463 339.232,463 L335.712,463 C335.370665,463 335.072001,462.872001 334.816,462.616 C334.559999,462.359999 334.432,462.061335 334.432,461.72 L334.432,424.92 C334.432,424.493331 334.218669,424.28 333.792,424.28 L325.28,424.28 C324.938665,424.28 324.640001,424.152001 324.384,423.896 C324.127999,423.639999 324,423.341335 324,423 L324,419.48 C324,419.138665 324.127999,418.840001 324.384,418.584 C324.640001,418.327999 324.938665,418.2 325.28,418.2 L349.6,418.2 C349.941335,418.2 350.239999,418.327999 350.496,418.584 C350.752001,418.840001 350.88,419.138665 350.88,419.48 L350.88,423 C350.88,423.341335 350.752001,423.639999 350.496,423.896 C350.239999,424.152001 349.941335,424.28 349.6,424.28 L341.152,424.28 Z M358.56,461.72 C358.56,462.061335 358.432001,462.359999 358.176,462.616 C357.919999,462.872001 357.621335,463 357.28,463 L351.52,463 C351.178665,463 350.880001,462.872001 350.624,462.616 C350.367999,462.359999 350.24,462.061335 350.24,461.72 L350.24,455.96 C350.24,455.618665 350.367999,455.320001 350.624,455.064 C350.880001,454.807999 351.178665,454.68 351.52,454.68 L357.28,454.68 C357.621335,454.68 357.919999,454.807999 358.176,455.064 C358.432001,455.320001 358.56,455.618665 358.56,455.96 L358.56,461.72 Z M373.024,461.72 C373.024,462.061335 372.896001,462.359999 372.64,462.616 C372.383999,462.872001 372.085335,463 371.744,463 L365.984,463 C365.642665,463 365.344001,462.872001 365.088,462.616 C364.831999,462.359999 364.704,462.061335 364.704,461.72 L364.704,455.96 C364.704,455.618665 364.831999,455.320001 365.088,455.064 C365.344001,454.807999 365.642665,454.68 365.984,454.68 L371.744,454.68 C372.085335,454.68 372.383999,454.807999 372.64,455.064 C372.896001,455.320001 373.024,455.618665 373.024,455.96 L373.024,461.72 Z M387.552,461.72 C387.552,462.061335 387.424001,462.359999 387.168,462.616 C386.911999,462.872001 386.613335,463 386.272,463 L380.512,463 C380.170665,463 379.872001,462.872001 379.616,462.616 C379.359999,462.359999 379.232,462.061335 379.232,461.72 L379.232,455.96 C379.232,455.618665 379.359999,455.320001 379.616,455.064 C379.872001,454.807999 380.170665,454.68 380.512,454.68 L386.272,454.68 C386.613335,454.68 386.911999,454.807999 387.168,455.064 C387.424001,455.320001 387.552,455.618665 387.552,455.96 L387.552,461.72 Z M423.136,450.2 C423.136,451.992009 422.784004,453.687992 422.08,455.288 C421.375996,456.888008 420.384006,458.295994 419.104,459.512 C417.823994,460.728006 416.298676,461.698663 414.528,462.424 C412.757324,463.149337 410.826677,463.512 408.736,463.512 C406.81599,463.512 405.034675,463.20267 403.392,462.584 C401.749325,461.96533 400.298673,461.080006 399.04,459.928 C397.781327,458.775994 396.746671,457.378675 395.936,455.736 C395.125329,454.093325 394.592001,452.24801 394.336,450.2 C394.165332,448.919994 394.037334,447.437342 393.952,445.752 C393.866666,444.066658 393.824,442.338676 393.824,440.568 C393.824,438.797324 393.866666,437.080008 393.952,435.416 C394.037334,433.751992 394.165332,432.280006 394.336,431 C394.549334,429.250658 395.018663,427.576008 395.744,425.976 C396.469337,424.375992 397.439994,422.95734 398.656,421.72 C399.872006,420.48266 401.322658,419.501337 403.008,418.776 C404.693342,418.050663 406.602656,417.688 408.736,417.688 C410.65601,417.688 412.490658,417.986664 414.24,418.584 C415.989342,419.181336 417.51466,420.055994 418.816,421.208 C420.11734,422.360006 421.162663,423.757325 421.952,425.4 C422.741337,427.042675 423.136,428.909323 423.136,431 L423.136,431.896 C423.136,432.237335 423.008001,432.535999 422.752,432.792 C422.495999,433.048001 422.197335,433.176 421.856,433.176 L418.336,433.176 C417.994665,433.176 417.696001,433.048001 417.44,432.792 C417.183999,432.535999 417.056,432.237335 417.056,431.896 L417.056,431 C417.056,430.061329 416.864002,429.154671 416.48,428.28 C416.095998,427.405329 415.541337,426.637337 414.816,425.976 C414.090663,425.314663 413.216005,424.781335 412.192,424.376 C411.167995,423.970665 410.016006,423.768 408.736,423.768 C406.645323,423.768 404.810675,424.38666 403.232,425.624 C401.653325,426.86134 400.714668,428.653322 400.416,431 C400.245332,432.322673 400.117334,433.815992 400.032,435.48 C399.946666,437.144008 399.904,438.850658 399.904,440.6 C399.904,442.349342 399.946666,444.055992 400.032,445.72 C400.117334,447.384008 400.245332,448.877327 400.416,450.2 C400.544001,451.138671 400.810665,452.045329 401.216,452.92 C401.621335,453.794671 402.175996,454.562663 402.88,455.224 C403.584004,455.885337 404.426662,456.418665 405.408,456.824 C406.389338,457.229335 407.49866,457.432 408.736,457.432 C409.802672,457.432 410.837328,457.272002 411.84,456.952 C412.842672,456.631998 413.727996,456.173336 414.496,455.576 C415.264004,454.978664 415.882664,454.221338 416.352,453.304 C416.821336,452.386662 417.056,451.352006 417.056,450.2 L417.056,449.304 C417.056,448.962665 417.183999,448.664001 417.44,448.408 C417.696001,448.151999 417.994665,448.024 418.336,448.024 L421.856,448.024 C422.197335,448.024 422.495999,448.151999 422.752,448.408 C423.008001,448.664001 423.136,448.962665 423.136,449.304 L423.136,450.2 Z M443.488,457.432 C445.664011,457.432 447.509326,456.802673 449.024,455.544 C450.538674,454.285327 451.466665,452.504012 451.808,450.2 C451.978668,448.877327 452.117333,447.384008 452.224,445.72 C452.330667,444.055992 452.384,442.349342 452.384,440.6 C452.384,438.850658 452.330667,437.144008 452.224,435.48 C452.117333,433.815992 451.978668,432.322673 451.808,431 C451.679999,430.061329 451.413335,429.154671 451.008,428.28 C450.602665,427.405329 450.048004,426.637337 449.344,425.976 C448.639996,425.314663 447.808005,424.781335 446.848,424.376 C445.887995,423.970665 444.768006,423.768 443.488,423.768 C441.397323,423.768 439.562675,424.38666 437.984,425.624 C436.405325,426.86134 435.466668,428.653322 435.168,431 C434.997332,432.322673 434.869334,433.815992 434.784,435.48 C434.698666,437.144008 434.656,438.850658 434.656,440.6 C434.656,442.349342 434.698666,444.055992 434.784,445.72 C434.869334,447.384008 434.997332,448.877327 435.168,450.2 C435.296001,451.138671 435.562665,452.045329 435.968,452.92 C436.373335,453.794671 436.927996,454.562663 437.632,455.224 C438.336004,455.885337 439.178662,456.418665 440.16,456.824 C441.141338,457.229335 442.25066,457.432 443.488,457.432 Z M443.488,417.688 C445.40801,417.688 447.189325,417.99733 448.832,418.616 C450.474675,419.23467 451.925327,420.119994 453.184,421.272 C454.442673,422.424006 455.477329,423.821325 456.288,425.464 C457.098671,427.106675 457.631999,428.95199 457.888,431 C458.058668,432.280006 458.176,433.762658 458.24,435.448 C458.304,437.133342 458.336,438.850658 458.336,440.6 C458.336,442.349342 458.293334,444.066658 458.208,445.752 C458.122666,447.437342 458.016001,448.919994 457.888,450.2 C457.674666,451.949342 457.205337,453.634659 456.48,455.256 C455.754663,456.877341 454.784006,458.295994 453.568,459.512 C452.351994,460.728006 450.890675,461.698663 449.184,462.424 C447.477325,463.149337 445.578677,463.512 443.488,463.512 C441.56799,463.512 439.786675,463.20267 438.144,462.584 C436.501325,461.96533 435.050673,461.080006 433.792,459.928 C432.533327,458.775994 431.498671,457.378675 430.688,455.736 C429.877329,454.093325 429.344001,452.24801 429.088,450.2 C428.917332,448.919994 428.789334,447.437342 428.704,445.752 C428.618666,444.066658 428.576,442.338676 428.576,440.568 C428.576,438.797324 428.618666,437.080008 428.704,435.416 C428.789334,433.751992 428.917332,432.280006 429.088,431 C429.301334,429.250658 429.770663,427.576008 430.496,425.976 C431.221337,424.375992 432.191994,422.95734 433.408,421.72 C434.624006,420.48266 436.074658,419.501337 437.76,418.776 C439.445342,418.050663 441.354656,417.688 443.488,417.688 Z M472.16,424.28 C471.733331,424.28 471.52,424.493331 471.52,424.92 L471.52,456.28 C471.52,456.706669 471.733331,456.92 472.16,456.92 L478.88,456.92 C479.861338,456.92 480.778662,456.717335 481.632,456.312 C482.485338,455.906665 483.231997,455.36267 483.872,454.68 C484.512003,453.99733 485.034665,453.218671 485.44,452.344 C485.845335,451.469329 486.111999,450.541338 486.24,449.56 C486.410668,448.279994 486.528,446.872008 486.592,445.336 C486.656,443.799992 486.688,442.232008 486.688,440.632 C486.688,439.031992 486.656,437.453341 486.592,435.896 C486.528,434.338659 486.410668,432.920006 486.24,431.64 C486.111999,430.701329 485.845335,429.784004 485.44,428.888 C485.034665,427.991996 484.512003,427.20267 483.872,426.52 C483.231997,425.83733 482.485338,425.293335 481.632,424.888 C480.778662,424.482665 479.861338,424.28 478.88,424.28 L472.16,424.28 Z M478.88,418.2 C480.714676,418.2 482.410659,418.551996 483.968,419.256 C485.525341,419.960004 486.879994,420.919994 488.032,422.136 C489.184006,423.352006 490.13333,424.781325 490.88,426.424 C491.62667,428.066675 492.106666,429.805324 492.32,431.64 C492.490668,432.920006 492.608,434.338659 492.672,435.896 C492.736,437.453341 492.768,439.031992 492.768,440.632 C492.768,442.232008 492.725334,443.799992 492.64,445.336 C492.554666,446.872008 492.448001,448.279994 492.32,449.56 C492.106666,451.394676 491.637337,453.133325 490.912,454.776 C490.186663,456.418675 489.237339,457.847994 488.064,459.064 C486.890661,460.280006 485.525341,461.239996 483.968,461.944 C482.410659,462.648004 480.714676,463 478.88,463 L466.72,463 C466.378665,463 466.080001,462.872001 465.824,462.616 C465.567999,462.359999 465.44,462.061335 465.44,461.72 L465.44,419.48 C465.44,419.138665 465.567999,418.840001 465.824,418.584 C466.080001,418.327999 466.378665,418.2 466.72,418.2 L478.88,418.2 Z M505.952,456.28 C505.952,456.706669 506.165331,456.92 506.592,456.92 L521.952,456.92 C522.293335,456.92 522.591999,457.047999 522.848,457.304 C523.104001,457.560001 523.232,457.858665 523.232,458.2 L523.232,461.72 C523.232,462.061335 523.104001,462.359999 522.848,462.616 C522.591999,462.872001 522.293335,463 521.952,463 L501.152,463 C500.810665,463 500.512001,462.872001 500.256,462.616 C499.999999,462.359999 499.872,462.061335 499.872,461.72 L499.872,419.48 C499.872,419.138665 499.999999,418.840001 500.256,418.584 C500.512001,418.327999 500.810665,418.2 501.152,418.2 L521.824,418.2 C522.165335,418.2 522.463999,418.327999 522.72,418.584 C522.976001,418.840001 523.104,419.138665 523.104,419.48 L523.104,423 C523.104,423.341335 522.976001,423.639999 522.72,423.896 C522.463999,424.152001 522.165335,424.28 521.824,424.28 L506.592,424.28 C506.165331,424.28 505.952,424.493331 505.952,424.92 L505.952,436.44 C505.952,436.866669 506.165331,437.08 506.592,437.08 L521.12,437.08 C521.461335,437.08 521.759999,437.207999 522.016,437.464 C522.272001,437.720001 522.4,438.018665 522.4,438.36 L522.4,441.88 C522.4,442.221335 522.272001,442.519999 522.016,442.776 C521.759999,443.032001 521.461335,443.16 521.12,443.16 L506.592,443.16 C506.165331,443.16 505.952,443.373331 505.952,443.8 L505.952,456.28 Z M537.248,449.56 C537.248,449.901335 537.120001,450.199999 536.864,450.456 C536.607999,450.712001 536.309335,450.84 535.968,450.84 L532.384,450.84 C532.042665,450.84 531.744001,450.712001 531.488,450.456 C531.231999,450.199999 531.104,449.901335 531.104,449.56 L531.104,419.48 C531.104,419.138665 531.231999,418.840001 531.488,418.584 C531.744001,418.327999 532.042665,418.2 532.384,418.2 L535.968,418.2 C536.309335,418.2 536.607999,418.327999 536.864,418.584 C537.120001,418.840001 537.248,419.138665 537.248,419.48 L537.248,449.56 Z M538.144,461.72 C538.144,462.061335 538.016001,462.359999 537.76,462.616 C537.503999,462.872001 537.205335,463 536.864,463 L531.552,463 C531.210665,463 530.912001,462.872001 530.656,462.616 C530.399999,462.359999 530.272,462.061335 530.272,461.72 L530.272,456.408 C530.272,456.066665 530.399999,455.768001 530.656,455.512 C530.912001,455.255999 531.210665,455.128 531.552,455.128 L536.864,455.128 C537.205335,455.128 537.503999,455.255999 537.76,455.512 C538.016001,455.768001 538.144,456.066665 538.144,456.408 L538.144,461.72 Z" id="READY...SET…CODE!" fill="#4A4A4A"></path>
            <g id="Group" filter="url(#filter-5)" transform="translate(172.000000, 49.000000)">
                <path d="M109.909112,114.897902 C123.491502,96.49252 115.663847,69.2525133 114.966881,59.0932152 C113.611074,39.3303389 111.8707,33.0205851 114.966881,22.8843395 C119.447,8.21737734 133.412525,22.8843394 133.412525,22.8843394 C133.412525,22.8843394 125.690799,89.0618921 139.3862,105.988618 C148.183421,116.861474 157.214849,119.314044 163.793926,132.556225 C185.571652,176.389823 194.511545,221.449881 194.511545,221.449881 C194.511545,221.449881 155.553731,276.81492 126.606998,274.937378 C100.916289,273.271029 59.4560452,232.127746 59.4560452,232.127746 C59.4560452,232.127746 69.9049051,169.107261 109.909112,114.897902 Z" id="Triangle-1" fill="#FBCBB5" transform="translate(126.983795, 145.674882) scale(1, -1) translate(-126.983795, -145.674882) "></path>
                <path d="M174.958698,58.2864739 C171.008269,53.333439 171.735629,41.5362595 161.327356,41.5362595 C131.928525,41.5362595 122.023123,20.5241378 122.023123,20.5241378 C122.023123,20.5241378 114.430524,45.2180353 96.4400806,58.2864731 C84.5226294,66.9434289 59.8128987,66.1091816 59.3502523,65.4185244 C58.5953197,64.2915304 54.3396518,42.66156 63.6153002,34.8315506 C71.672206,28.030339 75.0851418,32.0057004 86.2477322,27.6966143 C87.654735,27.1534701 93.146274,18.3430036 90.8040728,15.141894 C85.4374329,7.80725425 62.2544847,-2.35473168 71.5483181,0.788279412 C80.8421515,3.9312905 95.2202336,13.7836216 106.891839,17.1515732 C110.005197,18.0499619 108.900531,12.9670263 117.37548,12.7741674 C135.206546,12.3683974 168.039556,16.1779156 179.419393,20.5241378 C196.548697,27.0662145 192.742049,36.9362854 192.742049,45.2336626 C192.742049,61.6633677 191.011684,65.4185234 191.011684,65.4185234 C191.011684,65.4185234 182.166508,67.3236018 174.958698,58.2864739 Z" id="Rectangle-1" fill="#333333"></path>
                <path d="M58.4705771,113.835623 C70.3546321,113.835623 79.9885621,105.892879 79.9885621,96.0950067 C79.9885621,86.2971347 70.3546321,78.3543901 58.4705771,78.3543901 C46.5865221,78.3543901 38.4076067,76.2429636 38.4076067,86.0408356 C38.4076067,95.8387076 46.5865221,113.835623 58.4705771,113.835623 Z" id="Oval-1" fill="#FBCBB5"></path>
                <path d="M199.450479,112.357239 C211.334534,112.357239 221.281495,95.0995153 221.281495,85.3016433 C221.281495,75.5037713 211.334534,76.8760054 199.450479,76.8760054 C187.566424,76.8760054 177.932494,84.81875 177.932494,94.616622 C177.932494,104.414494 187.566424,112.357239 199.450479,112.357239 Z" id="Oval-1-Copy" fill="#FBCBB5"></path>
                <path d="M115.427763,90.289384 C114.443585,93.4105565 113.562362,97.0572034 112.216991,101.13653 C109.842284,108.336926 80.6878133,135.485875 128.960529,135.485875 C177.233245,135.485874 149.425658,114.200359 149.425658,101.13653 C149.425658,93.6986553 146.965443,86.9168047 142.470151,82.6989506 C144.024738,86.8597612 144.954971,91.9933273 145.888117,97.5367792 C148.214836,111.358896 171.966062,133.484136 129.238506,133.484136 C86.5109498,133.484136 111.274999,111.550191 114.07054,97.5367792 C114.574661,95.0097369 114.99952,92.5780043 115.427763,90.289384 Z" id="Oval-7" fill="#E5B097"></path>
                <path d="M113.623922,70.293578 C101.963205,65.7867483 61.3852976,66.1145856 61.3852976,72.9625923 C61.3852976,88.0619306 61.3852976,110.040573 89.0541151,110.040573 C113.970778,110.040573 116.449182,92.216809 116.695703,77.6440714 L141.130392,77.6440714 C141.376913,92.216809 143.855317,110.040573 168.77198,110.040573 C196.440797,110.040573 196.440797,88.0619306 196.440797,72.9625923 C196.440797,66.6378618 152.556646,65.2358645 142.94775,70.6522432 L142.94775,70.293578 L113.623922,70.293578 Z" id="Oval-3" fill="#000000"></path>
                <path d="M169.770161,104.965315 C190.823135,104.965315 190.823135,88.2419484 190.823135,76.7529872 C190.823135,71.3489128 148.717188,70.6681005 148.717188,76.7529872 C148.717188,88.2419484 148.717188,104.965315 169.770161,104.965315 Z" id="Path-Copy" fill="#FEF9F9"></path>
                <path d="M89.8387076,104.965315 C110.891681,104.965315 110.891681,88.2419484 110.891681,76.7529872 C110.891681,71.3489128 68.785734,70.6681005 68.785734,76.7529872 C68.785734,88.2419484 68.785734,104.965315 89.8387076,104.965315 Z" id="Path-Copy-2" fill="#FEF9F9"></path>
                <path d="M128.960528,150.795241 C133.878068,150.795241 137.196959,151.027132 137.196959,148.577664 C137.196959,146.128196 133.878068,146.360087 128.960528,146.360087 C124.042988,146.360087 121.317144,141.982839 121.317144,144.432307 C121.317144,146.881775 124.042988,150.795241 128.960528,150.795241 Z" id="Oval-8" fill="#2A190A"></path>
                <path d="M84.1188327,294.56004 C84.1188327,294.56004 89.5154368,286.545737 91.3620229,282.604511 C94.6514645,275.583755 99.5269157,261.674095 99.5269157,261.674095 L155.379767,261.674095 L177.932494,294.56004 L167.677829,314.461019 L158.973827,314.461019 L158.973827,294.56004 C158.973827,294.56004 140.545711,292.068609 135.287813,291.679375 C129.034091,291.216422 105.923763,294.56004 105.923763,294.56004 C105.923763,294.56004 108.58356,314.461019 105.923763,314.461019 L94.9618798,314.461019 L84.1188327,294.56004 Z" id="Rectangle-6" fill="#414441"></path>
                <polygon id="Rectangle-7" fill="#000000" points="100.764548 254.382511 153.841944 254.382511 156.285687 261.674095 99.2543948 261.674095"></polygon>
                <polygon id="Fill-39" fill="#FBCBB5" transform="translate(208.459745, 218.050827) scale(-1, 1) translate(-208.459745, -218.050827) " points="202.947273 209.969484 206.454545 223.074457 200.709091 223.074457 198.093636 213.995798 179.085455 213.995798 161.443636 215.514167 164.109091 209.969484 174.778182 208.092127 191.984945 202.651035 202.947273 202.651035 255.475854 224.482574 255.475854 233.45062"></polygon>
                <polygon id="Fill-39" fill="#FBCBB5" transform="translate(208.459745, 218.050827) scale(-1, 1) translate(-208.459745, -218.050827) " points="202.947273 209.969484 206.454545 223.074457 200.709091 223.074457 198.093636 213.995798 179.085455 213.995798 161.443636 215.514167 164.109091 209.969484 174.778182 208.092127 191.984945 202.651035 202.947273 202.651035 255.475854 224.482574 255.475854 233.45062"></polygon>
                <polygon id="Fill-39" fill="#FBCBB5" points="41.5036364 214.191276 45.0109091 227.296249 39.2654545 227.296249 36.65 218.21759 17.6418182 218.21759 3.30725346e-15 219.735958 2.66545455 214.191276 13.3345455 212.313919 30.541309 206.872827 41.5036364 206.872827 94.0322181 228.704365 94.0322181 237.672412"></polygon>
                <path d="M105.903707,231.507446 C107.145496,227.248768 95.6314184,239.885245 95.6314184,239.885245 L89.8490396,224.67694 L116.17408,209.93063 L134.08786,209.93063 C134.08786,209.93063 160.648591,219.669504 162.122978,223.087388 C164.035109,227.52004 160.214358,238.083464 160.214358,238.083464 C160.214358,238.083464 145.838665,225.444763 146.898945,227.902676 C152.995855,242.036371 153.919681,256.138454 153.919681,256.138454 L101.156199,254.617479 C101.156199,254.617479 101.546301,246.451034 105.903707,231.507446 Z" id="Rectangle-5" fill="#F6F6F6"></path>
                <polygon id="Rectangle-10" fill="#E0E0E0" points="117.088536 205.495476 123.51473 209.141268 122.795556 212.78706 115.886048 211.289907"></polygon>
                <polygon id="Rectangle-10-Copy" fill="#E0E0E0" transform="translate(131.572381, 209.141268) scale(-1, 1) translate(-131.572381, -209.141268) " points="128.960528 205.495476 135.386722 209.141268 134.667547 212.78706 127.75804 211.289907"></polygon>
                <path d="M123.709983,211.48568 C122.320457,210.82923 120.706288,210.123033 119.58264,209.806108 C117.328126,209.170222 112.636539,208.969102 112.636539,208.969102 C112.636539,208.969102 111.569191,213.329784 111.569191,215.196654 C111.569191,217.481485 112.636539,221.424205 112.636539,221.424205 C112.636539,221.424205 119.988586,218.841758 123.22851,216.850813 C123.487859,216.691442 123.765242,216.45369 124.044914,216.172332 C124.720843,216.880842 125.675907,217.322554 126.73453,217.322554 C127.803187,217.322554 128.766314,216.872428 129.443291,216.152111 C130.498751,217.082427 131.615482,217.991397 132.508213,218.539983 C134.710132,219.89307 139.884731,221.424205 139.884731,221.424205 C139.884731,221.424205 141.19881,217.487139 141.19881,215.518607 C141.19881,213.335439 139.884731,208.969102 139.884731,208.969102 C139.884731,208.969102 134.937711,208.405262 132.938631,208.969102 C131.819753,209.284682 130.39669,210.040197 129.130348,210.804516 C128.483961,210.259357 127.64778,209.93063 126.73453,209.93063 C125.486539,209.93063 124.382471,210.544503 123.709983,211.48568 Z" id="Triangle-2-Copy" fill="#393D3E"></path>
                <rect id="Rectangle-8" fill="#F6F6F6" x="93.0909091" y="314.461126" width="13.3559907" height="13.3054625"></rect>
                <rect id="Rectangle-8-Copy" fill="#F6F6F6" x="157.323636" y="314.461126" width="13.3559907" height="13.3054625"></rect>
                <path d="M158.994232,340.004908 C164.063467,341.379133 176.946964,341.233526 181.490439,341.233526 C189.916191,341.233526 200.020861,342.551655 200.020861,334.896972 C200.020861,327.242289 190.604762,327.928063 177.491322,327.928063 C176.104495,327.928063 173.566976,323.144518 171.408955,322.828791 C169.131118,322.495535 171.232994,326.626157 169.906117,326.505985 C160.603467,325.663464 157.047932,325.052575 157.047932,327.928064 C157.047932,329.621001 154.662706,338.830669 158.994232,340.004908 Z" id="Oval-9" fill="#4E2701"></path>
                <path d="M79.1905771,341.269188 C84.2598126,342.643413 91.6053009,343.742656 91.6053009,343.742656 C91.6053009,343.742656 96.6730055,346.156343 101.788953,345.010978 C103.45518,344.637941 109.903849,345.623239 109.903849,343.742656 C109.903849,339.336973 109.617052,338.173798 107.369166,335.441002 C105.711448,333.425684 103.253615,329.192344 97.6876677,329.192344 C96.3008407,329.192344 95.4109812,324.304477 93.2529609,323.988751 C92.0052415,323.806205 88.6510462,323.257749 87.6300966,324.735884 C86.7871999,325.956233 88.2301571,329.24669 87.6300966,329.192344 C78.3274474,328.349824 79.1905771,323.984851 79.1905771,326.86034 C79.1905771,328.553278 74.8590513,340.094949 79.1905771,341.269188 Z" id="Oval-9-Copy" fill="#4E2701" transform="translate(93.584652, 334.528323) scale(-1, 1) translate(-93.584652, -334.528323) "></path>
                <rect id="Rectangle-12" fill="#9B9B9B" x="123.024532" y="254.282172" width="8.9039938" height="7.39192359"></rect>
                <rect id="Rectangle-23" fill="#417505" transform="translate(143.360000, 228.193029) rotate(3.000000) translate(-143.360000, -228.193029) " x="142.429091" y="221.699732" width="1.86181818" height="12.9865952" rx="0.930909091"></rect>
                <polygon id="Rectangle-11" fill="#E8E8E8" points="132.56908 227.317532 145.48161 228.065386 147.032273 241.655986 133.729904 240.682187"></polygon>
            </g>
        </g>
    </g>
</svg>