<?xml version="1.0" encoding="UTF-8"?>
<svg width="595px" height="500px" viewBox="0 0 595 500" version="1.1" xmlns="http://www.w3.org/2000/svg" xmlns:xlink="http://www.w3.org/1999/xlink">
    <!-- Generator: Sketch 43.2 (39069) - http://www.bohemiancoding.com/sketch -->
    <title>A4</title>
    <desc>Created with Sketch.</desc>
    <defs>
        <radialGradient cx="34.6386488%" cy="25.9607468%" fx="34.6386488%" fy="25.9607468%" r="78.2520736%" gradientTransform="translate(0.346386,0.259607),scale(0.926830,1.000000),translate(-0.346386,-0.259607)" id="radialGradient-1">
            <stop stop-color="#C4EBFF" offset="0%"></stop>
            <stop stop-color="#8AD8FF" offset="100%"></stop>
        </radialGradient>
        <radialGradient cx="50%" cy="47.7505445%" fx="50%" fy="47.7505445%" r="54.1970167%" gradientTransform="translate(0.500000,0.477505),scale(1.000000,0.695621),translate(-0.500000,-0.477505)" id="radialGradient-2">
            <stop stop-color="#C4EBFF" offset="0%"></stop>
            <stop stop-color="#9BDDFF" offset="100%"></stop>
        </radialGradient>
    </defs>
    <g id="Page-1" stroke="none" stroke-width="1" fill="none" fill-rule="evenodd">
        <g id="A4">
            <g id="Group" opacity="0.920009328" transform="translate(0.000000, -219.000000)">
                <rect id="Rectangle-path" fill="url(#radialGradient-1)" x="0" y="196" width="599.89418" height="556"></rect>
                <polygon id="Shape" fill="url(#radialGradient-2)" style="mix-blend-mode: color-burn;" opacity="0.7" points="596.931217 414.121226 337.460317 425.903285 596.931217 349.319899 596.931217 283.92947 336.084656 406.462887 596.931217 224.037334 596.931217 150.399463 326.560847 386.826122 596.931217 44.5572963 596.931217 0.570941252 551.746032 0.570941252 320.846561 376.615003 492.169312 0.570941252 436.825397 0.570941252 316.190476 353.050885 387.407407 0.570941252 346.560847 0.570941252 302.010582 351.872679 322.222222 0.570941252 279.78836 0.570941252 289.62963 335.770531 249.312169 0.570941252 207.195767 0.570941252 275.026455 343.42887 159.365079 0.570941252 104.761905 0.570941252 275.343915 366.403885 45.8201058 0.570941252 0 0.570941252 0 42.7899874 268.888889 382.309666 0 147.846684 0 220.699084 257.566138 395.269931 0 280.198484 0 345.196178 257.883598 421.190462 0 409.408402 0 463.016772 248.042328 440.434492 0 507.788598 0 572.589925 253.227513 458.303949 0 632.089325 0 705.138093 268.888889 470.086008 0 810.587524 0 858.6976 42.2222222 858.6976 263.809524 508.770436 102.222222 858.6976 157.671958 858.6976 275.873016 514.857834 207.513228 858.6976 248.465608 858.6976 288.148148 516.625143 273.121693 858.6976 315.661376 858.6976 305.820106 521.337966 346.455026 858.6976 387.089947 858.6976 315.132275 513.286892 436.402116 858.6976 491.640212 858.6976 322.962963 493.846494 551.216931 858.6976 596.931217 858.6976 596.931217 816.085819 326.560847 474.798832 596.931217 710.44002 596.931217 637.587619 345.608466 471.264214 596.931217 577.891851 596.931217 513.090525 350.899471 453.394757 596.931217 468.711434"></polygon>
            </g>
            <g id="Imported-Layers" transform="translate(174.000000, 21.000000)">
                <path d="M69.9325714,323.996079 C69.9325714,323.996079 69.5461714,204.43379 68.2111038,144.776969 C67.6940863,121.674303 64.3763161,75.7176181 64.3763161,75.7176181 L173.651471,67.0983878 L173.651471,323.996079 L69.9325714,323.996079 Z" id="Fill-11" fill="#F2D3B3"></path>
                <path d="M69.9325714,323.996079 L68.0471838,133.734444 L74.6384385,130.672021 C74.6384385,130.672021 67.2166701,146.387632 73.3426337,148.42785 C80.2886641,150.740951 142.809623,149.552067 165.980602,148.42785 C172.088616,148.131483 169.489641,138.296326 169.838854,134.990755 C171.165173,135.022358 171.947731,134.008545 172.623758,134.990755 C175.095145,138.581472 174.054086,148.426221 174.017946,148.42785 L173.651471,323.996079 L69.9325714,323.996079 Z" id="Fill-12" fill="#E2BB98"></path>
                <polyline id="Fill-13" fill="#CEA282" points="127.579431 219.526352 91.4630608 202.323445 123.315088 207.063957 146.873732 202.323445 127.579432 221.291579"></polyline>
                <polygon id="Fill-14" fill="#4097D5" points="69.9362032 356.446642 114.887911 364 125.017107 357.82024 134.165459 364 173.816422 357.820244 173.816422 227.333872 123.500001 252.899902 67.5975502 220"></polygon>
                <path d="M127.331099,259.640012 C127.331099,261.67952 125.676029,263.332445 123.634753,263.332445 C121.593476,263.332445 119.939118,261.67952 119.939118,259.640012 C119.939118,257.601215 121.593476,255.947579 123.634753,255.947579 C125.676029,255.947579 127.331099,257.601215 127.331099,259.640012" id="Fill-15" fill="#E8F3F9"></path>
                <path d="M128.466356,293.765882 C128.466356,295.80539 126.811286,297.458315 124.770009,297.458315 C122.728733,297.458315 121.074374,295.80539 121.074374,293.765882 C121.074374,291.726374 122.728733,290.073449 124.770009,290.073449 C126.811286,290.073449 128.466356,291.726374 128.466356,293.765882" id="Fill-16" fill="#E8F3F9"></path>
                <path d="M129.878179,327.688512 C129.878179,329.72802 128.223109,331.380945 126.181833,331.380945 C124.140556,331.380945 122.486198,329.72802 122.486198,327.688512 C122.486198,325.649004 124.140556,323.996079 126.181833,323.996079 C128.223109,323.996079 129.878179,325.649004 129.878179,327.688512" id="Fill-17" fill="#E8F3F9"></path>
                <polyline id="Fill-18" fill="#79BFF2" points="111.485708 237.681547 119.125915 252.918163 104.809951 246.617719 111.485708 237.681547"></polyline>
                <polyline id="Fill-19" fill="#79BFF2" points="134.05355 237.681547 126.182188 253.611738 138.734973 246.78898 134.05355 237.681547"></polyline>
                <polygon id="Fill-20" fill="#82CCF9" points="111.736282 237.902884 100.195071 252.222267 67.628845 221.060624 67.4631246 213.656571"></polygon>
                <polyline id="Fill-21" fill="#82CCF9" points="133.866398 237.815501 174.266056 221.291579 174.266056 231.932551 141.805674 252.425255"></polyline>
                <path d="M73.2341763,123.550118 C73.2341763,131.725915 66.600383,138.353961 58.4174954,138.353961 C50.2338967,138.353961 43.6001033,131.725915 43.6001033,123.550118 C43.6001033,115.37361 50.2338967,108.745565 58.4174954,108.745565 C66.600383,108.745565 73.2341763,115.37361 73.2341763,123.550118" id="Fill-22" fill="#F2D3B3"></path>
                <path d="M195.568523,122.839488 C195.568523,131.015285 188.934729,137.643331 180.751842,137.643331 C172.568243,137.643331 165.93445,131.015285 165.93445,122.839488 C165.93445,114.66298 172.568243,108.034935 180.751842,108.034935 C188.934729,108.034935 195.568523,114.66298 195.568523,122.839488" id="Fill-22-Copy" fill="#F2D3B3"></path>
                <path d="M53.4949605,69.2572815 C55.6557264,48.2851713 60.9033009,48.2960375 60.9033009,48.2960375 L62.524231,56.149002 C62.524231,56.149002 58.8869168,32.9569278 88.7279624,29.9630439 C112.462502,27.5822339 116.135302,25.2989482 120.078364,18.4125318 C125.661412,8.66194058 116.315486,0.85525311 116.315486,0.85525311 C113.552982,-2.96207028 133.69166,10.6004669 145.783246,26.7346741 C147.902524,29.5624967 163.799863,27.374918 171.501325,37.4760128 C173.780139,40.4648623 175.049916,43.7613402 175.049916,43.7613402 C175.049916,43.7613402 171.501325,34.3989297 175.049916,38.615519 C178.598507,42.8321083 192.777747,65.8542616 190.864031,79.127223 C187.586242,101.860979 174.715141,127.665641 172.610564,128.763583 C171.623847,129.278345 170.077607,129.545562 169.72576,127.155568 C168.85399,121.233882 173.251429,106.811077 172.610564,95.7695293 C172.193604,88.5856763 175.41224,85.1073409 172.610564,82.0652618 C167.147362,76.1332801 143.686398,78.8366819 140.313228,79.1272205 C122.409027,80.6692874 92.1424998,79.127223 92.1424998,79.127223 C92.1424998,79.127223 78.5862153,82.0669162 73.6473217,86.2304969 C70.2278127,89.1132591 66.0115422,90.1008911 67.4588565,99.0329445 C69.7534251,113.193801 77.0338329,131.303541 76.0771438,132.636947 L71.089769,132.636943 C71.089769,132.636943 69.8479331,120.080112 67.4588571,115.366504 C64.8393374,110.199514 60.9033009,108.96586 60.9033009,108.96586 C60.9033009,108.96586 51.3341945,90.2301024 53.4949605,69.2572815 Z" id="Fill-23" fill="#442211"></path>
                <path d="M116.351873,0.570127185 C118.495532,0.570127185 144.049097,28.5951993 137.184389,52.6220068 C130.319682,76.6488143 103.933629,73.4558162 103.933629,73.4558162 C103.933629,73.4558162 120.980236,68.8025362 126.570568,49.2361051 C132.1609,29.6696739 127.057466,21.4160541 127.057466,21.4160541" id="Fill-24" fill="#603719"></path>
                <polyline id="Fill-25" fill="#442211" points="75.9049058 134.549248 71.2127788 137.980169 71.1672948 136.05223 75.7570829 133.122303 75.9049058 134.549248"></polyline>
                <polyline id="Fill-25-Copy" fill="#442211" transform="translate(170.976830, 130.814888) scale(-1, 1) translate(-170.976830, -130.814888) " points="173.345635 130.300995 168.653508 132.060622 168.608024 131.071834 173.197812 129.569154 173.345635 130.300995"></polyline>
                <path d="M93.9991691,106.118161 C80.5708408,106.349826 70.530811,109.874551 70.5087623,112.512409 C70.47889,116.027895 74.8117874,135.363897 92.1925108,135.363897 C93.1093072,135.363897 93.9984589,135.467648 94.9906473,135.363897 C111.670082,133.609351 118.688623,115.056464 118.456756,112.512409 C118.231291,110.030889 107.877005,106.109633 94.9906463,106.109633 C94.6634731,106.109633 94.3320323,106.112476 93.9991691,106.118161 Z" id="Fill-26" fill="#F8F3ED"></path>
                <path d="M149.075998,104.011184 C134.659764,104.270585 130.731373,108.225398 130.707703,111.179067 C130.675633,115.115436 128.979554,135.135312 147.638956,135.135312 C148.6232,135.135312 149.647913,135.079613 150.713096,134.963439 C168.619616,132.998836 175.919371,110.970753 175.670447,108.122118 C175.428394,105.343505 163.97481,104.001636 150.140417,104.001636 C149.789174,104.001636 149.43335,104.004819 149.075998,104.011184 Z" id="Fill-26-Copy" fill="#F8F3ED"></path>
                <path d="M174.830055,103.490262 C168.760841,102.840378 158.610988,100.880659 152.050943,101.343415 C142.025296,102.051314 129.169427,107.989036 121.708747,107.753552 C114.248067,107.517345 111.715567,101.579623 94.9290372,101.343415 C78.1417912,101.107932 72.312777,105.589358 66.7172671,106.061049 C61.1217572,106.53274 66.0181865,115.023177 67.4170639,117.617115 C68.8159414,120.211777 72.5462818,139.567927 94.9290376,138.152854 C117.311793,136.737781 116.361368,114.071624 123.588543,114.543315 C129.875255,114.954142 132.000365,138.62382 152.050943,138.152854 C172.102236,137.680439 179.319689,106.061049 179.319689,106.061049 C179.319689,106.061049 178.035692,103.833518 174.830055,103.490262 Z M94.6173073,134.515833 C76.0562317,136.638765 71.7492565,116.62524 71.7786011,112.851783 C71.7992756,110.162252 80.5959623,106.568484 93.1874289,106.33228 C105.778229,106.096801 114.372171,110.695521 114.588921,113.290136 C114.806337,115.884025 110.257269,132.727643 94.6173073,134.515833 L94.6173073,134.515833 Z M132.295498,112.614486 C132.53476,109.557104 142.895413,106.931278 151.495654,106.433456 C160.095894,105.936416 172.574038,106.651537 172.998252,109.820851 C173.714572,115.17714 164.126661,133.961635 150.779334,133.962418 C136.206337,133.963983 132.056969,115.671868 132.295498,112.614486 Z" id="Fill-29" fill="#000000"></path>
                <path d="M117.620329,127.378281 C117.620329,127.378281 112.316525,138.272924 113.732352,141.398504 C115.14761,144.523566 125.762612,143.073126 128.788238,141.619573 C131.813863,140.167058 131.322391,131.432247 131.322391,131.432247 C131.322391,131.432247 133.544255,139.877489 130.30361,143.509556 C127.063534,147.141103 113.059422,147.417699 111.207869,143.701564 C109.355747,139.98491 117.620329,127.378281 117.620329,127.378281" id="Fill-30" fill="#C69E87"></path>
                <polyline id="Fill-35" fill="#442211" points="95.6071368 99.8399508 111.034778 98.7377638 104.494869 93.6318878 95.6071368 99.8399508"></polyline>
                <polyline id="Fill-36" fill="#442211" points="141.614097 93.9808071 135.569927 99.0824193 148.442061 98.6986791 141.614097 93.9808071"></polyline>
                <path d="M114.483749,171.482422 C114.304153,177.615182 123.176642,183.987089 126.46453,182.240854 C129.751245,180.494619 132.843985,180.388073 133.199654,176.385761 C133.555324,172.383449 131.487396,173.671497 127.5316,171.482422 C125.287146,171.482422 114.725557,163.238058 114.483749,171.482422 Z" id="Fill-37" fill="#442F26" transform="translate(123.860038, 175.176100) scale(-1, 1) translate(-123.860038, -175.176100) "></path>
                <path d="M188.489059,227.396973 L140.826748,229.609375 C140.826748,229.609375 211.437699,280.807337 208.191006,281.750103 C204.548471,282.807812 205.997689,286.826946 205.5415,288.701172 C204.631275,292.440774 205.143041,294.561309 205.541499,296.021686 C206.140368,298.213268 217.368609,306.049383 217.368609,306.049383 C217.368609,306.049383 220.752909,314.240236 221.151918,318.22616 C221.550928,322.212083 227.263467,329.034705 227.662476,322.657512 C228.061485,316.279609 224.996449,305.209285 225.794467,300.027372 C226.592485,294.845458 227.107703,306.969649 231.574329,302.358371 C235.13056,298.686546 237.44211,288.915385 235.367405,281.750103 C234.561563,278.965145 217.36861,275.009766 217.36861,275.009766 L181.70956,244.729492 L205.5415,240.794922" id="Fill-58-Copy" fill="#F2CCAA" transform="translate(188.489057, 276.331937) scale(-1, 1) translate(-188.489057, -276.331937) "></path>
                <path d="M64.8956592,234.907603 C62.818109,234.857859 1.67903002,256.764294 0.0388962766,258.039164 C0.0388962766,258.039164 72.5431888,293.485943 69.2964952,294.428709 C58.3860896,297.596844 64.2975011,308.755134 64.8956592,310.947428 C65.4945285,313.13901 79.0751133,314.63844 79.0751133,314.63844 C79.0751133,314.63844 80.2714294,327.260649 80.6704386,331.246572 C81.0694477,335.232495 85.0588276,337.623765 85.4578367,331.246572 C85.8568459,324.868669 86.0815997,307.660765 86.8796179,302.478852 C87.6776361,297.296938 94.3256544,299.658362 89.3689796,304.610741 C84.9236908,309.052179 88.8142076,315.558706 93.2808337,310.947429 C96.8370647,307.275604 99.1486149,297.504442 97.0739097,290.339161 C96.2680677,287.554202 79.075113,287.015623 79.075113,287.015623 L33.5136735,260.215821 L69.2964951,247.843288" id="Fill-58" fill="#F2CCAA"></path>
                <polygon id="Fill-41" fill="#4197D5" points="39.8797964 234.308009 46.7838855 260.331454 87.5666315 251.593526 67.9417933 225.854533"></polygon>
                <polygon id="Fill-41-Copy" fill="#4197D5" transform="translate(179.364985, 238.724030) scale(-1, 1) translate(-179.364985, -238.724030) " points="153.679189 225.854533 167.063954 251.593526 205.050781 251.593526 185.425943 225.854533"></polygon>
            </g>
            <g id="Group" transform="translate(223.000000, 370.000000)">
                <rect id="Rectangle-1" fill="#4A4A4A" x="0" y="5.84615385" width="159" height="13.1538462"></rect>
                <rect id="Rectangle-2" fill="#DDDDDD" x="2.89090909" y="0" width="6.50454545" height="5.84615385"></rect>
                <rect id="Rectangle-2-Copy" fill="#DDDDDD" x="12.2863636" y="0" width="6.50454545" height="5.84615385"></rect>
                <rect id="Rectangle-2-Copy-2" fill="#DDDDDD" x="21.6818182" y="0" width="6.50454545" height="5.84615385"></rect>
                <rect id="Rectangle-2-Copy-3" fill="#DDDDDD" x="31.0772727" y="0" width="6.50454545" height="5.84615385"></rect>
                <rect id="Rectangle-2-Copy-4" fill="#DDDDDD" x="40.4727273" y="0" width="6.50454545" height="5.84615385"></rect>
                <rect id="Rectangle-2-Copy-5" fill="#DDDDDD" x="49.8681818" y="0" width="6.50454545" height="5.84615385"></rect>
                <rect id="Rectangle-2-Copy-6" fill="#DDDDDD" x="59.2636364" y="0" width="6.50454545" height="5.84615385"></rect>
                <rect id="Rectangle-2-Copy-7" fill="#DDDDDD" x="68.6590909" y="0" width="6.50454545" height="5.84615385"></rect>
                <rect id="Rectangle-2-Copy-8" fill="#DDDDDD" x="78.0545455" y="0" width="6.50454545" height="5.84615385"></rect>
                <rect id="Rectangle-2-Copy-9" fill="#DDDDDD" x="87.45" y="0" width="6.50454545" height="5.84615385"></rect>
                <rect id="Rectangle-2-Copy-10" fill="#DDDDDD" x="96.8454545" y="0" width="6.50454545" height="5.84615385"></rect>
                <rect id="Rectangle-2-Copy-11" fill="#DDDDDD" x="106.240909" y="0" width="6.50454545" height="5.84615385"></rect>
                <rect id="Rectangle-2-Copy-12" fill="#DDDDDD" x="114.913636" y="0" width="6.50454545" height="5.84615385"></rect>
                <rect id="Rectangle-2-Copy-13" fill="#DDDDDD" x="123.586364" y="0" width="6.50454545" height="5.84615385"></rect>
                <rect id="Rectangle-2-Copy-14" fill="#DDDDDD" x="132.259091" y="0" width="6.50454545" height="5.84615385"></rect>
                <rect id="Rectangle-2-Copy-15" fill="#DDDDDD" x="140.931818" y="0" width="6.50454545" height="5.84615385"></rect>
                <rect id="Rectangle-2-Copy-16" fill="#DDDDDD" x="149.604545" y="0" width="6.50454545" height="5.84615385"></rect>
            </g>
            <g id="Oval-1-+-Oval-1-Copy-+-Oval-1-Copy-2" transform="translate(163.000000, 368.000000)">
                <path d="M5.68434189e-14,21.2604167 L39.1111111,21.2604167 L39.1111111,11.1111111 C39.1111111,4.97461389 30.3557907,0 19.5555556,0 C8.75532045,0 5.68434189e-14,4.97461389 5.68434189e-14,11.1111111 L5.68434189e-14,21.2604167 Z" id="Oval-1" fill="#4A4A4A"></path>
                <path d="M18.6666667,10.8802083 L18.6666667,1.70081017 C18.6666667,1.70081017 12.3186493,1.47323768 6.89885659,3.90682877 C4.56394778,4.9552477 5.66189238,10.8802083 5.66189238,10.8802083 L18.6666667,10.8802083 Z" id="Oval-1-Copy" fill="#9B9B9B"></path>
                <path d="M33.7777778,10.8802083 L33.7777778,1.70081017 C33.7777778,1.70081017 27.4297605,1.47323768 22.0099677,3.90682877 C19.6750589,4.9552477 20.7730035,10.8802083 20.7730035,10.8802083 L33.7777778,10.8802083 Z" id="Oval-1-Copy-2" fill="#9B9B9B" transform="translate(27.146440, 6.287685) scale(-1, 1) translate(-27.146440, -6.287685) "></path>
            </g>
            <text id="READY...SET…CODE!" font-family="GTPressura, GT Pressura" font-size="64" font-weight="normal" fill="#4A4A4A">
                <tspan x="57.376" y="463">READY...SET…CODE!</tspan>
            </text>
        </g>
    </g>
</svg>